<svg version="1.1" xmlns="http://www.w3.org/2000/svg" xmlns:xlink="http://www.w3.org/1999/xlink" width="217.17496" height="184.72352" viewBox="0,0,217.17496,184.72352"><g transform="translate(-131.41252,-87.63826)"><g data-paper-data="{&quot;isPaintingLayer&quot;:true}" fill-rule="nonzero" stroke-linecap="butt" stroke-linejoin="miter" stroke-miterlimit="10" stroke-dasharray="" stroke-dashoffset="0" style="mix-blend-mode: normal"><path d="M246.33879,156.73859c5.20843,0.64567 5.95122,2.79791 5.95122,12.26778c-0.04304,5.63888 -0.51653,7.92025 -1.85093,9.08246l-1.07612,0.94698l1.20526,0.90394c1.93702,1.37744 2.23833,3.22836 2.06615,11.66515c-0.12914,8.17852 -0.3874,9.29769 -2.62573,10.93339c-1.11916,0.81785 -1.89397,0.90394 -9.55595,1.03308c-13.08563,0.21522 -13.12868,0.17218 -13.12868,-12.52605c0,-9.29769 0.25827,-10.45989 2.4966,-11.44993l1.03308,-0.51653l-1.11916,-0.8609c-1.72179,-1.33439 -2.06615,-3.3575 -1.89397,-10.71817c0.17218,-8.82419 0.90394,-10.11554 5.94019,-10.76121c3.44359,-0.47349 8.82419,-0.47349 12.22474,0zM241.93825,166.79901l-2.00211,-1.79581l-2.71183,-0.12914v5.42365v5.42365l2.71183,-0.12914l2.66878,-0.12914v-5.16538zM242.60492,183.21117l-2.66878,-0.12914l-2.71183,-0.12914v6.28455v6.28455l2.71183,-0.12914l2.66878,-0.12914v-6.02627z" fill="#ff0000" stroke="#ff0000" stroke-width="6.5"></path><path d="M348.58748,180.00001c0,51.01 -48.61627,92.36177 -108.58748,92.36177c-59.97121,0 -108.58748,-41.35177 -108.58748,-92.36176c0,-51.00999 48.61627,-92.36176 108.58748,-92.36176c59.97121,0 108.58748,41.35177 108.58748,92.36177z" fill="none" stroke="none" stroke-width="0"></path></g></g></svg>