<svg version="1.1" xmlns="http://www.w3.org/2000/svg" xmlns:xlink="http://www.w3.org/1999/xlink" width="28.66588" height="48.29877" viewBox="0,0,28.66588,48.29877"><g transform="translate(-225.66706,-155.85061)"><g data-paper-data="{&quot;isPaintingLayer&quot;:true}" fill="#ff0000" fill-rule="nonzero" stroke="none" stroke-width="1" stroke-linecap="butt" stroke-linejoin="miter" stroke-miterlimit="10" stroke-dasharray="" stroke-dashoffset="0" style="mix-blend-mode: normal"><path d="M230.46532,155.85064c3.62241,0 5.03112,0.12074 5.19211,0.48299c0.0805,0.28174 1.04647,5.19211 2.1332,10.86722c1.04647,5.71536 2.0527,10.38423 2.17344,10.38423c0.12074,0 1.12697,-4.70913 2.21369,-10.50498c1.12697,-5.7556 2.1332,-10.66597 2.25394,-10.86722c0.12074,-0.2415 2.33444,-0.32199 5.07137,-0.28174l4.82987,0.12074l-4.54813,17.70954l-4.58838,17.70954v6.31909v6.35934h-5.23237h-5.23237v-6.35934v-6.35934l-4.42739,-17.30706c-2.45519,-9.49876 -4.50789,-17.5083 -4.62863,-17.79004c-0.12074,-0.36224 1.00623,-0.48299 4.78963,-0.48299z"></path></g></g></svg>