<svg version="1.1" xmlns="http://www.w3.org/2000/svg" xmlns:xlink="http://www.w3.org/1999/xlink" width="250.60394" height="94.29942" viewBox="0,0,250.60394,94.29942"><g transform="translate(-134.46216,-139.24459)"><g data-paper-data="{&quot;isPaintingLayer&quot;:true}" fill-rule="nonzero" stroke-linejoin="miter" stroke-miterlimit="10" stroke-dasharray="" stroke-dashoffset="0" style="mix-blend-mode: normal"><path d="M196.074,185.47519c-0.63814,0 -1.28904,-0.08083 -1.9527,-0.24249c-0.65515,-0.15315 -1.21246,-0.36161 -1.67192,-0.62537l0.5488,-2.48874c0.58709,0.31482 1.13589,0.52328 1.6464,0.62538c0.51902,0.09359 0.9955,0.14039 1.42943,0.14039c0.40841,0 0.71472,-0.06381 0.91892,-0.19144c0.21272,-0.13614 0.31907,-0.31482 0.31907,-0.53604c0,-0.2042 -0.11912,-0.36587 -0.35736,-0.48499c-0.22973,-0.11912 -0.53178,-0.22547 -0.90615,-0.31907c-0.36587,-0.1021 -0.75726,-0.22122 -1.17418,-0.35736c-0.41692,-0.14464 -0.81256,-0.32758 -1.18694,-0.5488c-0.36587,-0.22973 -0.66792,-0.53604 -0.90615,-0.91892c-0.22973,-0.38288 -0.34459,-0.86361 -0.34459,-1.44219c0,-0.73173 0.17868,-1.36137 0.53604,-1.88889c0.35736,-0.53604 0.86361,-0.9487 1.51878,-1.23799c0.66366,-0.28929 1.4422,-0.43393 2.33559,-0.43393c0.5956,0 1.17843,0.08083 1.74851,0.2425c0.57858,0.15315 1.04229,0.36161 1.39115,0.62538l-0.52327,2.23349c-0.51902,-0.21272 -0.98273,-0.36587 -1.39114,-0.45946c-0.40841,-0.1021 -0.79555,-0.15315 -1.16141,-0.15315c-0.42542,0 -0.753,0.06382 -0.98273,0.19145c-0.22122,0.11912 -0.33183,0.28078 -0.33183,0.48499c0,0.19569 0.11487,0.3531 0.3446,0.47223c0.23824,0.11912 0.54029,0.23824 0.90616,0.35736c0.36587,0.11061 0.75726,0.23824 1.17418,0.38288c0.41692,0.13614 0.80831,0.32332 1.17418,0.56156c0.36587,0.22973 0.66366,0.53178 0.8934,0.90616c0.23824,0.37437 0.35736,0.8466 0.35736,1.41667c0,1.18269 -0.38714,2.0931 -1.16141,2.73124c-0.76577,0.63814 -1.82933,0.95721 -3.1907,0.95721zM206.36363,185.47519c-1.01251,0 -1.90591,-0.18293 -2.68019,-0.5488c-0.77428,-0.36587 -1.37413,-0.88914 -1.79955,-1.56982c-0.42542,-0.68919 -0.63814,-1.51026 -0.63814,-2.46321v-6.1389h3.38214v5.98575c0,0.68068 0.16592,1.18269 0.49775,1.50601c0.33183,0.31482 0.76577,0.47223 1.3018,0.47223c0.57007,0 1.00401,-0.16166 1.3018,-0.48499c0.2978,-0.32332 0.4467,-0.77002 0.4467,-1.34009v-6.1389h3.43319v6.13891c0,0.90191 -0.22547,1.69745 -0.67642,2.38665c-0.44245,0.68919 -1.05931,1.22948 -1.8506,1.62088c-0.78278,0.38288 -1.68894,0.57433 -2.71847,0.57433zM216.26536,185.47519c-0.63814,0 -1.28904,-0.08083 -1.9527,-0.24249c-0.65515,-0.15315 -1.21246,-0.36161 -1.67192,-0.62537l0.5488,-2.48874c0.58709,0.31482 1.13589,0.52328 1.6464,0.62538c0.51902,0.09359 0.9955,0.14039 1.42943,0.14039c0.40841,0 0.71472,-0.06381 0.91892,-0.19144c0.21272,-0.13614 0.31907,-0.31482 0.31907,-0.53604c0,-0.2042 -0.11912,-0.36587 -0.35736,-0.48499c-0.22973,-0.11912 -0.53178,-0.22547 -0.90615,-0.31907c-0.36587,-0.1021 -0.75726,-0.22122 -1.17418,-0.35736c-0.41692,-0.14464 -0.81256,-0.32758 -1.18694,-0.5488c-0.36587,-0.22973 -0.66792,-0.53604 -0.90615,-0.91892c-0.22973,-0.38288 -0.34459,-0.86361 -0.34459,-1.44219c0,-0.73173 0.17868,-1.36137 0.53604,-1.88889c0.35736,-0.53604 0.86361,-0.9487 1.51878,-1.23799c0.66366,-0.28929 1.4422,-0.43393 2.33559,-0.43393c0.5956,0 1.17843,0.08083 1.74851,0.2425c0.57858,0.15315 1.04229,0.36161 1.39115,0.62538l-0.52327,2.23349c-0.51902,-0.21272 -0.98273,-0.36587 -1.39114,-0.45946c-0.40841,-0.1021 -0.79555,-0.15315 -1.16141,-0.15315c-0.42542,0 -0.753,0.06382 -0.98273,0.19145c-0.22122,0.11912 -0.33183,0.28078 -0.33183,0.48499c0,0.19569 0.11487,0.3531 0.3446,0.47223c0.23824,0.11912 0.54029,0.23824 0.90616,0.35736c0.36587,0.11061 0.75726,0.23824 1.17418,0.38288c0.41692,0.13614 0.80831,0.32332 1.17418,0.56156c0.36587,0.22973 0.66366,0.53178 0.8934,0.90616c0.23824,0.37437 0.35736,0.8466 0.35736,1.41667c0,1.18269 -0.38714,2.0931 -1.16141,2.73124c-0.76577,0.63814 -1.82933,0.95721 -3.1907,0.95721zM221.65409,185.2327v-10.50377h3.54806c1.72723,0 3.02903,0.28504 3.90541,0.85511c0.87638,0.56156 1.31457,1.39115 1.31457,2.48875c0,0.75726 -0.19144,1.40391 -0.57432,1.93994c-0.37437,0.53604 -0.91041,0.94445 -1.60811,1.22523c-0.68919,0.27227 -1.4975,0.40841 -2.42493,0.40841h-0.79129v3.58635zM225.67438,179.52773c0.53604,0 0.9487,-0.11061 1.23799,-0.33183c0.2978,-0.22122 0.4467,-0.55731 0.4467,-1.00826c0,-0.41692 -0.14039,-0.72747 -0.42117,-0.93168c-0.28078,-0.21272 -0.69345,-0.31907 -1.23799,-0.31907h-0.67642v2.59085zM231.51358,185.2327v-10.47824h7.35137v2.31007h-3.65016v1.86337h3.33109v1.91442h-3.33108v2.00376h3.65016v2.38665zM240.24539,185.2327v-10.47824h3.03754l4.12238,5.55182v-5.55181h2.80781v10.47825h-3.0503l-4.12238,-5.33485v5.33485zM255.07852,185.47519c-0.63814,0 -1.28904,-0.08083 -1.9527,-0.24249c-0.65515,-0.15315 -1.21246,-0.36161 -1.67192,-0.62537l0.5488,-2.48874c0.58709,0.31482 1.13589,0.52328 1.6464,0.62538c0.51902,0.09359 0.9955,0.14039 1.42943,0.14039c0.40841,0 0.71472,-0.06381 0.91892,-0.19144c0.21272,-0.13614 0.31907,-0.31482 0.31907,-0.53604c0,-0.2042 -0.11912,-0.36587 -0.35736,-0.48499c-0.22973,-0.11912 -0.53178,-0.22547 -0.90615,-0.31907c-0.36587,-0.1021 -0.75726,-0.22122 -1.17418,-0.35736c-0.41692,-0.14464 -0.81256,-0.32758 -1.18694,-0.5488c-0.36587,-0.22973 -0.66792,-0.53604 -0.90615,-0.91892c-0.22973,-0.38288 -0.34459,-0.86361 -0.34459,-1.44219c0,-0.73173 0.17868,-1.36137 0.53604,-1.88889c0.35736,-0.53604 0.86361,-0.9487 1.51878,-1.23799c0.66366,-0.28929 1.4422,-0.43393 2.33559,-0.43393c0.5956,0 1.17843,0.08083 1.74851,0.2425c0.57858,0.15315 1.04229,0.36161 1.39115,0.62538l-0.52327,2.23349c-0.51902,-0.21272 -0.98273,-0.36587 -1.39114,-0.45946c-0.40841,-0.1021 -0.79555,-0.15315 -1.16141,-0.15315c-0.42542,0 -0.753,0.06382 -0.98273,0.19145c-0.22122,0.11912 -0.33183,0.28078 -0.33183,0.48499c0,0.19569 0.11487,0.3531 0.3446,0.47223c0.23824,0.11912 0.54029,0.23824 0.90616,0.35736c0.36587,0.11061 0.75726,0.23824 1.17418,0.38288c0.41692,0.13614 0.80831,0.32332 1.17418,0.56156c0.36587,0.22973 0.66366,0.53178 0.8934,0.90616c0.23824,0.37437 0.35736,0.8466 0.35736,1.41667c0,1.18269 -0.38714,2.0931 -1.16141,2.73124c-0.76577,0.63814 -1.82933,0.95721 -3.1907,0.95721zM260.46723,185.2327v-10.47824h3.44595v10.47825zM270.74364,185.47519c-1.10611,0 -2.08033,-0.23399 -2.92267,-0.70195c-0.84234,-0.46797 -1.50175,-1.11036 -1.97823,-1.92718c-0.46797,-0.82533 -0.70195,-1.77402 -0.70195,-2.8461c0,-1.07207 0.23399,-2.02078 0.70196,-2.8461c0.47647,-0.82533 1.13589,-1.46772 1.97824,-1.92718c0.84234,-0.46797 1.81657,-0.70195 2.92268,-0.70195c1.11461,0 2.0931,0.22973 2.93544,0.68919c0.84234,0.45946 1.4975,1.10186 1.96547,1.92719c0.47647,0.82533 0.71472,1.77828 0.71472,2.85886c0,1.07207 -0.23824,2.02078 -0.71472,2.84611c-0.46797,0.81682 -1.12313,1.45921 -1.96547,1.92719c-0.84234,0.46797 -1.82083,0.70196 -2.93544,0.70196zM270.74364,182.70567c0.64665,0 1.17418,-0.24674 1.58259,-0.74024c0.40841,-0.502 0.61261,-1.16141 0.61261,-1.97823c0,-0.54455 -0.09359,-1.02528 -0.28078,-1.44219c-0.18719,-0.41692 -0.44669,-0.7445 -0.77853,-0.98273c-0.32332,-0.23824 -0.7062,-0.35736 -1.14865,-0.35736c-0.63814,0 -1.16141,0.25526 -1.56982,0.76577c-0.3999,0.51051 -0.59985,1.18269 -0.59985,2.01652c0,0.81682 0.19995,1.47623 0.59986,1.97824c0.40841,0.4935 0.93594,0.74024 1.58259,0.74024zM277.59561,185.2327v-10.47824h3.03754l4.12238,5.55182v-5.55181h2.80781v10.47825h-3.0503l-4.12238,-5.33485v5.33485z" fill="#ffffff" stroke="#000000" stroke-width="3.5" stroke-linecap="square"></path><path d="M196.074,185.47519c-0.63814,0 -1.28904,-0.08083 -1.9527,-0.24249c-0.65515,-0.15315 -1.21246,-0.36161 -1.67192,-0.62537l0.5488,-2.48874c0.58709,0.31482 1.13589,0.52328 1.6464,0.62538c0.51902,0.09359 0.9955,0.14039 1.42943,0.14039c0.40841,0 0.71472,-0.06381 0.91892,-0.19144c0.21272,-0.13614 0.31907,-0.31482 0.31907,-0.53604c0,-0.2042 -0.11912,-0.36587 -0.35736,-0.48499c-0.22973,-0.11912 -0.53178,-0.22547 -0.90615,-0.31907c-0.36587,-0.1021 -0.75726,-0.22122 -1.17418,-0.35736c-0.41692,-0.14464 -0.81256,-0.32758 -1.18694,-0.5488c-0.36587,-0.22973 -0.66792,-0.53604 -0.90615,-0.91892c-0.22973,-0.38288 -0.34459,-0.86361 -0.34459,-1.44219c0,-0.73173 0.17868,-1.36137 0.53604,-1.88889c0.35736,-0.53604 0.86361,-0.9487 1.51878,-1.23799c0.66366,-0.28929 1.4422,-0.43393 2.33559,-0.43393c0.5956,0 1.17843,0.08083 1.74851,0.2425c0.57858,0.15315 1.04229,0.36161 1.39115,0.62538l-0.52327,2.23349c-0.51902,-0.21272 -0.98273,-0.36587 -1.39114,-0.45946c-0.40841,-0.1021 -0.79555,-0.15315 -1.16141,-0.15315c-0.42542,0 -0.753,0.06382 -0.98273,0.19145c-0.22122,0.11912 -0.33183,0.28078 -0.33183,0.48499c0,0.19569 0.11487,0.3531 0.3446,0.47223c0.23824,0.11912 0.54029,0.23824 0.90616,0.35736c0.36587,0.11061 0.75726,0.23824 1.17418,0.38288c0.41692,0.13614 0.80831,0.32332 1.17418,0.56156c0.36587,0.22973 0.66366,0.53178 0.8934,0.90616c0.23824,0.37437 0.35736,0.8466 0.35736,1.41667c0,1.18269 -0.38714,2.0931 -1.16141,2.73124c-0.76577,0.63814 -1.82933,0.95721 -3.1907,0.95721zM206.36363,185.47519c-1.01251,0 -1.90591,-0.18293 -2.68019,-0.5488c-0.77428,-0.36587 -1.37413,-0.88914 -1.79955,-1.56982c-0.42542,-0.68919 -0.63814,-1.51026 -0.63814,-2.46321v-6.1389h3.38214v5.98575c0,0.68068 0.16592,1.18269 0.49775,1.50601c0.33183,0.31482 0.76577,0.47223 1.3018,0.47223c0.57007,0 1.00401,-0.16166 1.3018,-0.48499c0.2978,-0.32332 0.4467,-0.77002 0.4467,-1.34009v-6.1389h3.43319v6.13891c0,0.90191 -0.22547,1.69745 -0.67642,2.38665c-0.44245,0.68919 -1.05931,1.22948 -1.8506,1.62088c-0.78278,0.38288 -1.68894,0.57433 -2.71847,0.57433zM216.26536,185.47519c-0.63814,0 -1.28904,-0.08083 -1.9527,-0.24249c-0.65515,-0.15315 -1.21246,-0.36161 -1.67192,-0.62537l0.5488,-2.48874c0.58709,0.31482 1.13589,0.52328 1.6464,0.62538c0.51902,0.09359 0.9955,0.14039 1.42943,0.14039c0.40841,0 0.71472,-0.06381 0.91892,-0.19144c0.21272,-0.13614 0.31907,-0.31482 0.31907,-0.53604c0,-0.2042 -0.11912,-0.36587 -0.35736,-0.48499c-0.22973,-0.11912 -0.53178,-0.22547 -0.90615,-0.31907c-0.36587,-0.1021 -0.75726,-0.22122 -1.17418,-0.35736c-0.41692,-0.14464 -0.81256,-0.32758 -1.18694,-0.5488c-0.36587,-0.22973 -0.66792,-0.53604 -0.90615,-0.91892c-0.22973,-0.38288 -0.34459,-0.86361 -0.34459,-1.44219c0,-0.73173 0.17868,-1.36137 0.53604,-1.88889c0.35736,-0.53604 0.86361,-0.9487 1.51878,-1.23799c0.66366,-0.28929 1.4422,-0.43393 2.33559,-0.43393c0.5956,0 1.17843,0.08083 1.74851,0.2425c0.57858,0.15315 1.04229,0.36161 1.39115,0.62538l-0.52327,2.23349c-0.51902,-0.21272 -0.98273,-0.36587 -1.39114,-0.45946c-0.40841,-0.1021 -0.79555,-0.15315 -1.16141,-0.15315c-0.42542,0 -0.753,0.06382 -0.98273,0.19145c-0.22122,0.11912 -0.33183,0.28078 -0.33183,0.48499c0,0.19569 0.11487,0.3531 0.3446,0.47223c0.23824,0.11912 0.54029,0.23824 0.90616,0.35736c0.36587,0.11061 0.75726,0.23824 1.17418,0.38288c0.41692,0.13614 0.80831,0.32332 1.17418,0.56156c0.36587,0.22973 0.66366,0.53178 0.8934,0.90616c0.23824,0.37437 0.35736,0.8466 0.35736,1.41667c0,1.18269 -0.38714,2.0931 -1.16141,2.73124c-0.76577,0.63814 -1.82933,0.95721 -3.1907,0.95721zM221.65409,185.2327v-10.50377h3.54806c1.72723,0 3.02903,0.28504 3.90541,0.85511c0.87638,0.56156 1.31457,1.39115 1.31457,2.48875c0,0.75726 -0.19144,1.40391 -0.57432,1.93994c-0.37437,0.53604 -0.91041,0.94445 -1.60811,1.22523c-0.68919,0.27227 -1.4975,0.40841 -2.42493,0.40841h-0.79129v3.58635zM225.67438,179.52773c0.53604,0 0.9487,-0.11061 1.23799,-0.33183c0.2978,-0.22122 0.4467,-0.55731 0.4467,-1.00826c0,-0.41692 -0.14039,-0.72747 -0.42117,-0.93168c-0.28078,-0.21272 -0.69345,-0.31907 -1.23799,-0.31907h-0.67642v2.59085zM231.51358,185.2327v-10.47824h7.35137v2.31007h-3.65016v1.86337h3.33109v1.91442h-3.33108v2.00376h3.65016v2.38665zM240.24539,185.2327v-10.47824h3.03754l4.12238,5.55182v-5.55181h2.80781v10.47825h-3.0503l-4.12238,-5.33485v5.33485zM255.07852,185.47519c-0.63814,0 -1.28904,-0.08083 -1.9527,-0.24249c-0.65515,-0.15315 -1.21246,-0.36161 -1.67192,-0.62537l0.5488,-2.48874c0.58709,0.31482 1.13589,0.52328 1.6464,0.62538c0.51902,0.09359 0.9955,0.14039 1.42943,0.14039c0.40841,0 0.71472,-0.06381 0.91892,-0.19144c0.21272,-0.13614 0.31907,-0.31482 0.31907,-0.53604c0,-0.2042 -0.11912,-0.36587 -0.35736,-0.48499c-0.22973,-0.11912 -0.53178,-0.22547 -0.90615,-0.31907c-0.36587,-0.1021 -0.75726,-0.22122 -1.17418,-0.35736c-0.41692,-0.14464 -0.81256,-0.32758 -1.18694,-0.5488c-0.36587,-0.22973 -0.66792,-0.53604 -0.90615,-0.91892c-0.22973,-0.38288 -0.34459,-0.86361 -0.34459,-1.44219c0,-0.73173 0.17868,-1.36137 0.53604,-1.88889c0.35736,-0.53604 0.86361,-0.9487 1.51878,-1.23799c0.66366,-0.28929 1.4422,-0.43393 2.33559,-0.43393c0.5956,0 1.17843,0.08083 1.74851,0.2425c0.57858,0.15315 1.04229,0.36161 1.39115,0.62538l-0.52327,2.23349c-0.51902,-0.21272 -0.98273,-0.36587 -1.39114,-0.45946c-0.40841,-0.1021 -0.79555,-0.15315 -1.16141,-0.15315c-0.42542,0 -0.753,0.06382 -0.98273,0.19145c-0.22122,0.11912 -0.33183,0.28078 -0.33183,0.48499c0,0.19569 0.11487,0.3531 0.3446,0.47223c0.23824,0.11912 0.54029,0.23824 0.90616,0.35736c0.36587,0.11061 0.75726,0.23824 1.17418,0.38288c0.41692,0.13614 0.80831,0.32332 1.17418,0.56156c0.36587,0.22973 0.66366,0.53178 0.8934,0.90616c0.23824,0.37437 0.35736,0.8466 0.35736,1.41667c0,1.18269 -0.38714,2.0931 -1.16141,2.73124c-0.76577,0.63814 -1.82933,0.95721 -3.1907,0.95721zM260.46723,185.2327v-10.47824h3.44595v10.47825zM270.74364,185.47519c-1.10611,0 -2.08033,-0.23399 -2.92267,-0.70195c-0.84234,-0.46797 -1.50175,-1.11036 -1.97823,-1.92718c-0.46797,-0.82533 -0.70195,-1.77402 -0.70195,-2.8461c0,-1.07207 0.23399,-2.02078 0.70196,-2.8461c0.47647,-0.82533 1.13589,-1.46772 1.97824,-1.92718c0.84234,-0.46797 1.81657,-0.70195 2.92268,-0.70195c1.11461,0 2.0931,0.22973 2.93544,0.68919c0.84234,0.45946 1.4975,1.10186 1.96547,1.92719c0.47647,0.82533 0.71472,1.77828 0.71472,2.85886c0,1.07207 -0.23824,2.02078 -0.71472,2.84611c-0.46797,0.81682 -1.12313,1.45921 -1.96547,1.92719c-0.84234,0.46797 -1.82083,0.70196 -2.93544,0.70196zM270.74364,182.70567c0.64665,0 1.17418,-0.24674 1.58259,-0.74024c0.40841,-0.502 0.61261,-1.16141 0.61261,-1.97823c0,-0.54455 -0.09359,-1.02528 -0.28078,-1.44219c-0.18719,-0.41692 -0.44669,-0.7445 -0.77853,-0.98273c-0.32332,-0.23824 -0.7062,-0.35736 -1.14865,-0.35736c-0.63814,0 -1.16141,0.25526 -1.56982,0.76577c-0.3999,0.51051 -0.59985,1.18269 -0.59985,2.01652c0,0.81682 0.19995,1.47623 0.59986,1.97824c0.40841,0.4935 0.93594,0.74024 1.58259,0.74024zM277.59561,185.2327v-10.47824h3.03754l4.12238,5.55182v-5.55181h2.80781v10.47825h-3.0503l-4.12238,-5.33485v5.33485z" fill="#ffffff" stroke="none" stroke-width="1" stroke-linecap="square"></path><path d="M385.0661,186.39431c0,26.04007 -56.0996,47.14971 -125.30196,47.14971c-69.20236,0 -125.30197,-21.10964 -125.30197,-47.14971c0,-26.04006 56.09961,-47.14971 125.30197,-47.14971c69.20236,0 125.30197,21.10965 125.30197,47.14971z" fill="none" stroke="none" stroke-width="0" stroke-linecap="butt"></path></g></g></svg>