<svg version="1.1" xmlns="http://www.w3.org/2000/svg" xmlns:xlink="http://www.w3.org/1999/xlink" width="9.1014" height="44.25" viewBox="0,0,9.1014,44.25"><g transform="translate(-235.34333,-151.78611)"><g data-paper-data="{&quot;isPaintingLayer&quot;:true}" fill-rule="nonzero" stroke-linecap="round" stroke-linejoin="miter" stroke-miterlimit="10" stroke-dasharray="" stroke-dashoffset="0" style="mix-blend-mode: normal"><path d="M240.78334,195.28611l0.875,-42.75" fill="none" stroke="#909e8a" stroke-width="1.5"></path><path d="M241.15834,195.28611l0.875,-42.75" fill="none" stroke="#555e45" stroke-width="1"></path><path d="M239.29334,171.95111c1.37914,-0.52489 4.98259,-7.19763 4.9,-9.3c-0.07855,-1.99945 -4.11066,-9.5781 -4.4,-9.6c-0.28477,-0.02155 -4.13405,7.86211 -4.2,9.2c-0.07627,1.54713 2.62645,10.10859 3.7,9.7z" fill="#cfb041" stroke="#8b620d" stroke-width="0.5"></path><path d="M239.05181,169.75433c1.06561,-0.40556 3.74984,-5.36131 3.68602,-6.98572c-0.06069,-1.54488 -3.07614,-7.40059 -3.2997,-7.41751c-0.22003,-0.01665 -2.8942,5.97472 -2.94516,7.00845c-0.05893,1.1954 1.72935,7.71048 2.55883,7.39478z" fill="none" stroke="#8b620d" stroke-width="0.5"></path><path d="M239.26667,167.86465l-0.90909,-4l2.18182,-0.09091l-0.81818,-3.54545" fill="none" stroke="#000000" stroke-width="1"></path><path d="M238.26667,161.04646l2.72727,-0.54545l-1.36364,-3.09091z" fill="#000000" stroke="#000000" stroke-width="0.5"></path></g></g></svg>